<svg xmlns="http://www.w3.org/2000/svg" viewBox="0 0 1080 1080"><defs><style>.cls-1{fill:#001e32;}</style></defs><g id="Layer_1" data-name="Layer 1"><path class="cls-1" d="M1020.48,0h-961A59.75,59.75,0,0,0,0,59.52v961A59.44,59.44,0,0,0,59.48,1080H577.05V661.77H436.25v-163h140.8V378.45C577.05,238.9,662.16,163,786.66,163c59.47,0,110.61,4.17,125.7,6.27V315.58H826.05c-67.95,0-80.89,31.86-80.89,79.21v104H906.51l-21,163H745.16V1080h275.32a59.43,59.43,0,0,0,59.52-59.52v-961A59.46,59.46,0,0,0,1020.48,0Z"/></g></svg>
