<?xml version="1.0" encoding="utf-8"?>
<!-- Generator: Adobe Illustrator 24.3.0, SVG Export Plug-In . SVG Version: 6.00 Build 0)  -->
<svg version="1.1" id="Layer_1" xmlns="http://www.w3.org/2000/svg" xmlns:xlink="http://www.w3.org/1999/xlink" x="0px" y="0px"
	 viewBox="0 0 216.6 296.3" style="enable-background:new 0 0 216.6 296.3;" xml:space="preserve">
<path d="M108.3,296.3c-23.1-0.1-45.6-7.4-64.3-20.9c-19.4-14-32.7-33.2-38.6-55.5C0,199.4,0,171.4,0,148.9v-1.5
	c0-22.5,0-50.5,5.4-71.1C11.3,54,24.6,34.9,44,20.9C82.4-7,134.2-7,172.6,20.9c19.4,14,32.7,33.2,38.6,55.4
	c5.5,20.6,5.4,48.6,5.4,71.1v1.5c0,22.5,0,50.5-5.4,71.1c-5.9,22.3-19.2,41.4-38.6,55.5C153.9,289,131.4,296.3,108.3,296.3z
	 M108.3,4C86,4.1,64.4,11.1,46.3,24.1C27.7,37.6,14.9,56,9.3,77.3C4,97.4,4,125.1,4,147.4v1.5c0,22.3,0,50,5.3,70.1
	c5.6,21.4,18.4,39.8,37,53.2c37,26.8,87,26.8,123.9,0c18.6-13.5,31.4-31.9,37-53.2c5.3-20.1,5.3-47.8,5.3-70.1v-1.5
	c0-22.3,0-50-5.3-70.1c-5.6-21.4-18.5-39.8-37-53.2C152.2,11.1,130.5,4.1,108.3,4L108.3,4z"/>
<path d="M22.8,173.4c0-2.1,0.3-3.4,1.2-4.4c0.8-0.9,2-1.3,3.2-1.3c0.7,0,1.3,0.1,1.9,0.5c0.5,0.3,0.9,0.7,1.1,1.2
	c0.2-0.8,0.6-1.5,1.2-2.1c0.8-0.7,1.9-1.1,3-1.1c1.1-0.1,2.1,0.3,2.9,1.1c1.1,1.2,1.7,2.8,1.6,4.5v4h-16V173.4z M29.7,173.4v-0.7
	c0.1-0.7-0.2-1.4-0.6-2c-0.5-0.5-1.2-0.7-1.8-0.6c-0.6,0-1.1,0.2-1.5,0.6c-0.5,0.5-0.7,1.2-0.6,1.9v0.8L29.7,173.4z M36.5,173.4
	v-1.5c0-0.9-0.2-1.7-0.6-2.4c-0.4-0.5-1.1-0.8-1.8-0.8c-0.6,0-1.2,0.2-1.7,0.6c-0.6,0.7-0.8,1.6-0.7,2.5v1.5L36.5,173.4z"/>
<path d="M25.1,145.7v6.4h4.1v-6.2h2.3v6.2h5v-6.4h2.3v8.8h-16v-8.8H25.1z"/>
<path d="M22.9,130.9c-0.1-1.5,0.2-2.9,1-4.2c0.9-1.2,2.3-1.9,3.8-1.8c2.2,0,4,1.5,4.4,3.6l6.9-4.9v3l-6.6,4.5v0.4l6.6,0.1v2.5
	l-16.1-0.3L22.9,130.9z M30.2,131.4v-0.8c0-0.7,0-3.4-2.6-3.5c-2.3,0-2.5,2.1-2.5,3.3v0.8L30.2,131.4z"/>
<path d="M31.8,103.8l0.6-6.6h0.1c2.4,0.1,4.7,1.1,6.3,2.9c1.3,1.6,1.8,3.6,1.6,5.6c-0.1,2.1-1,4-2.6,5.2c-3.6,2.9-8.9,2.4-12-1
	c-1.4-1.7-2.1-4-1.9-6.2c0.1-1.4,0.6-2.8,1.4-4.1c0.7-1,1.5-1.8,2.6-2.4l1.2,2.1c-0.8,0.5-1.5,1.1-2,1.8c-0.6,0.8-0.9,1.8-0.9,2.8
	c-0.2,1.6,0.3,3.1,1.3,4.4c2.3,2.4,6.1,2.8,8.8,0.8c1.2-0.9,1.9-2.4,1.9-3.9c0.2-1.3-0.2-2.7-1.1-3.7c-0.6-0.8-1.6-1.4-2.6-1.6
	l-0.3,4L31.8,103.8z"/>
<path d="M32.2,74.7l-1.9,6.1l3.9,1.2l1.9-5.9l2.2,0.7l-1.9,5.9l4.8,1.5l1.9-6.1l2.2,0.7l-2.7,8.4l-15.2-4.9L30,74L32.2,74.7z"/>
<path d="M44.3,56.6c-0.4-0.1-0.8-0.1-1.2,0c-0.6,0.1-1.1,0.5-1.5,1c-0.8,0.8-0.8,2,0,2.8c0.1,0.1,0.1,0.1,0.2,0.2
	c0.4,0.3,1.2,0.6,2.6-0.2l1.5-0.9c2.7-1.6,4.6-1.3,6-0.2c2.2,1.5,2.8,4.6,1.3,6.9c-0.1,0.1-0.2,0.2-0.3,0.3c-0.8,1.2-2.1,2-3.5,2.1
	c-1.2,0.1-2.3-0.2-3.3-0.8l1-2.3c0.6,0.4,1.3,0.7,2,0.7c0.8,0,1.5-0.4,2-1.1c0.9-1.1,0.7-2.7-0.4-3.6c0,0-0.1-0.1-0.2-0.1
	c-1.3-1-2.6-0.4-3.6,0.2l-1.4,0.8c-1.2,0.7-3.3,1.6-5.2,0.2c-1.7-1.3-2.4-3.9-0.6-6.3c0.7-1,1.6-1.7,2.8-1.9c0.7-0.1,1.3-0.1,2,0
	L44.3,56.6z"/>
<path d="M62.4,38.6l-5.1,3.8l2.4,3.3l5-3.7l1.4,1.9l-5,3.7l3,4.1l5.1-3.8l1.4,1.9l-7.1,5.2l-9.5-12.9l7.1-5.2L62.4,38.6z"/>
<path d="M79.8,44.5l-5.3-16.2l14.8,8l-3.5-10.5l2.3-0.8l5.2,16.2l-14.8-8l3.5,10.6L79.8,44.5z"/>
<path d="M111.4,26.4c-0.1-0.4-0.4-0.7-0.7-1c-0.5-0.4-1.1-0.6-1.7-0.6c-1.1-0.2-2.1,0.6-2.3,1.7c0,0.1,0,0.1,0,0.2
	c0,0.5,0.1,1.3,1.7,2l1.6,0.7c2.9,1.2,3.7,2.9,3.7,4.8c0.1,2.7-2.1,5-4.8,5.1c-0.1,0-0.3,0-0.4,0c-1.4,0.1-2.8-0.6-3.8-1.6
	c-0.8-0.9-1.2-2-1.3-3.1l2.4-0.5c0,0.7,0.2,1.5,0.6,2.1c0.5,0.6,1.3,1,2.1,1c1.4,0.1,2.6-1.1,2.7-2.5c0-0.1,0-0.1,0-0.2
	c0-1.6-1.2-2.3-2.3-2.8l-1.5-0.7c-1.3-0.6-3.2-1.7-3.2-4.1c0-2.2,1.7-4.2,4.7-4.2c1.2,0,2.3,0.4,3.2,1.1c0.5,0.5,0.9,1,1.2,1.6
	L111.4,26.4z"/>
<path d="M131.6,28.4L128,41.7l-2.4-0.6l3.6-13.2l-3.5-1l0.6-2.2l9.5,2.6l-0.6,2.2L131.6,28.4z"/>
<path d="M150.3,33.7l-7.5,14.1l-2.2-1.1l7.5-14.1L150.3,33.7z"/>
<path d="M167.5,49.3l-4.2-3.7l-2.7,3l4,3.6l-1.5,1.7l-4-3.6l-4.9,5.5l-1.8-1.6L163,42.2l6,5.3L167.5,49.3z"/>
<path d="M178.8,63.9l-11.6,7.3l-1.3-2.1l11.6-7.3l-2-3.1l2-1.2l5.2,8.3l-1.9,1.2L178.8,63.9z"/>
<path d="M188.3,88.5l-1.5-6.2l-3.9,1l1.5,6l-2.2,0.6l-1.5-6l-4.9,1.2l1.5,6.2l-2.2,0.6l-2.1-8.6l15.5-3.9l2.1,8.6L188.3,88.5z"/>
<path d="M192.5,103.9l-13.7,1.2l0.4,4.7l-2.3,0.2l-0.6-7.1l16-1.4L192.5,103.9z"/>
<path d="M190.1,126.8c0.4-0.2,0.7-0.4,1-0.8c0.4-0.5,0.6-1.1,0.5-1.7c0-1.5-0.9-2.2-2-2.2c-0.5,0-1.3,0.2-1.9,1.8l-0.6,1.6
	c-1.1,3-2.8,3.8-4.6,3.9c-2.7,0.2-5.1-1.9-5.2-4.6c0-0.1,0-0.3,0-0.4c-0.1-1.4,0.4-2.8,1.5-3.8c0.8-0.8,1.9-1.3,3.1-1.4l0.6,2.4
	c-0.7,0-1.4,0.3-2,0.7c-0.6,0.5-1,1.3-0.9,2.1c0,1.4,1.2,2.6,2.6,2.6c0.1,0,0.1,0,0.2,0c1.6,0,2.3-1.3,2.7-2.4l0.6-1.5
	c0.5-1.3,1.6-3.3,4-3.4c2.1-0.1,4.3,1.6,4.3,4.6c0.1,1.2-0.3,2.3-1,3.2c-0.4,0.5-1,0.9-1.6,1.3L190.1,126.8z"/>
<path d="M191.4,149.9v-6.4h-4.1v6.2h-2.3v-6.2h-5v6.4h-2.3v-8.8h16v8.8L191.4,149.9z"/>
<path d="M177.7,161.8h17.1l-12.2,11.6h11.1v2.5h-17l12.2-11.6h-11.2V161.8z"/>
<path d="M50.2,248.9c-0.6,0.2-1.3,0.2-1.9,0c-0.8-0.2-1.5-0.6-2-1.2c-0.7-0.6-1.1-1.6-1.1-2.5c0-1.1,0.5-2.1,1.3-2.8
	c0.8-0.8,1.9-1.3,3.1-1.3c0.9,0,1.9,0.4,2.5,1.1c0.7,0.6,1,1.5,1,2.4c-0.1,1.2-0.7,2.2-1.6,3l-0.2,0.1l-3.8-3.9
	c-0.4,0.4-0.6,1-0.6,1.5c0,0.5,0.2,1,0.6,1.3c0.3,0.3,0.7,0.5,1.1,0.6c0.4,0.1,0.7,0,1.1-0.1L50.2,248.9z M51.2,245.5
	c0.2-0.3,0.4-0.7,0.4-1.1c0-0.4-0.2-0.8-0.5-1.1c-0.3-0.3-0.7-0.6-1.2-0.6c-0.4,0-0.7,0.1-1.1,0.3L51.2,245.5z"/>
<path d="M61.3,252.6l-3.5,4.8l-1.4-1l3.5-4.8l-0.6-0.4l1-1.3l0.6,0.4l1.6-2.2l1.4,1l-1.6,2.2l1.1,0.8l-1,1.3L61.3,252.6z"/>
<path d="M74.8,258.6l1.6,0.8l-3.4,6.8l-1.6-0.8l0.4-0.7c-0.8,0.3-1.7,0.3-2.5-0.1c-1.8-0.9-2.6-3.2-1.6-5c0-0.1,0.1-0.1,0.1-0.2
	c0.8-1.9,2.9-2.8,4.8-2c0.1,0,0.2,0.1,0.3,0.1c0.8,0.4,1.4,1.1,1.5,2L74.8,258.6z M69.4,260.2c-0.6,1-0.3,2.4,0.7,3.1
	c0,0,0.1,0,0.1,0c1.3,0.4,2.7-0.2,3.1-1.5c0.4-1.1,0-2.2-1-2.8C71.3,258.5,70,259,69.4,260.2C69.5,260.2,69.5,260.2,69.4,260.2
	L69.4,260.2z"/>
<path d="M86.1,263.8c0.7-0.5,1.6-0.7,2.5-0.5c2,0.5,3.1,2.6,2.6,4.5c0,0.1-0.1,0.2-0.1,0.3c-0.4,2-2.3,3.4-4.3,3.1
	c-0.1,0-0.2,0-0.2-0.1c-0.8-0.2-1.6-0.8-1.9-1.6l-0.2,0.8l-1.7-0.5l3.4-12.7l1.7,0.5L86.1,263.8z M85.2,266.6
	c-0.4,1.1,0.1,2.4,1.3,2.8c0.1,0,0.1,0,0.2,0.1c1.3,0.2,2.6-0.8,2.7-2.1c0.1-1.1-0.5-2.2-1.5-2.6c-1.2-0.3-2.3,0.4-2.6,1.6
	C85.3,266.4,85.3,266.5,85.2,266.6z"/>
<path d="M100.8,271.4c0.6,0.1,1,0.6,1,1.2c-0.1,0.6-0.6,1-1.2,1c-0.6-0.1-1-0.6-1-1.2C99.7,271.8,100.2,271.3,100.8,271.4
	C100.8,271.4,100.8,271.4,100.8,271.4z"/>
<path d="M124.4,261.6l-2,0.5l0.6-1.9l2.9-0.6l2.6,11.7l-1.8,0.4L124.4,261.6z"/>
<path d="M139.6,267.2l1.2-4.4c-0.2,0.1-0.4,0.2-0.6,0.3c-0.9,0.4-2,0.5-3,0.1c-1-0.4-1.7-1.1-2.1-2.1c-0.4-1-0.5-2.2-0.1-3.2
	c0.4-1.1,1.3-1.9,2.4-2.3c1-0.5,2.2-0.5,3.3-0.1c0.9,0.4,1.6,1.2,2,2.1c0.3,0.7,0.4,1.5,0.4,2.3c-0.1,0.9-0.3,1.7-0.5,2.5l-1.4,5.2
	L139.6,267.2z M141.1,260.2c0.2-0.6,0.2-1.3,0-1.9c-0.2-0.6-0.7-1.1-1.3-1.3c-0.6-0.2-1.2-0.2-1.8,0c-0.6,0.3-1,0.7-1.3,1.3
	c-0.5,1.2,0,2.7,1.3,3.2c0.6,0.3,1.3,0.3,1.9,0C140.4,261.3,140.9,260.8,141.1,260.2L141.1,260.2z"/>
<path d="M153.1,248.8l-4.9,3.4l-1-1.4l7.4-5.1l0.8,14.5l-1.7,0.1L153.1,248.8z"/>
<path d="M165.1,238l-2.6,2.7l1,1.8c0.1-0.1,0.2-0.3,0.4-0.4c0.7-0.7,1.7-1.2,2.7-1.2c1.1,0,2.2,0.5,3,1.3c0.9,0.8,1.4,1.9,1.4,3.1
	c0,1.2-0.5,2.4-1.4,3.2c-0.5,0.6-1.2,1-2,1.3c-0.7,0.2-1.3,0.2-2,0.1l0.1-1.8c0.4,0.1,0.9,0.2,1.4,0.1c0.5-0.1,1-0.4,1.4-0.8
	c0.5-0.5,0.8-1.1,0.8-1.8c0-0.8-0.4-1.5-0.9-2c-0.5-0.5-1.2-0.8-1.9-0.8c-0.7,0.1-1.4,0.4-1.8,1c-0.3,0.3-0.6,0.7-0.8,1.2
	c-0.2,0.4-0.3,0.7-0.4,1.1l-3.1-5.5l3.5-3.6L165.1,238z"/>
<path d="M108.3,288.7c-21.5-0.1-42.4-6.8-59.8-19.4c-17.9-13-30.2-30.7-35.7-51.2c-5.2-19.6-5.2-47.1-5.2-69.2v-1.5
	c0-22.1,0-49.5,5.2-69.2C18.2,57.7,30.6,40,48.5,27c35.7-25.9,84-25.9,119.6,0c17.9,13,30.2,30.7,35.7,51.2
	c5.2,19.6,5.2,47.1,5.2,69.2v1.5c0,22.1,0,49.5-5.2,69.2c-5.4,20.5-17.8,38.2-35.7,51.2C150.7,281.9,129.8,288.6,108.3,288.7z
	 M108.3,9.1c-21.2,0.1-41.8,6.7-58.9,19.1C31.7,41,19.6,58.4,14.3,78.6c-5.1,19.4-5.1,46.8-5.1,68.8v1.5c0,22,0,49.3,5.1,68.8
	c5.3,20.2,17.5,37.6,35.1,50.4c35.2,25.5,82.7,25.5,117.9,0c17.6-12.8,29.8-30.2,35.1-50.4c5.1-19.4,5.1-46.8,5.1-68.8v-1.5
	c0-22,0-49.3-5.1-68.8C197,58.4,184.9,41,167.2,28.3C150.1,15.9,129.5,9.2,108.3,9.1z"/>
<path d="M108.3,244c-24.6,0-46.6-15.7-52.3-37.4c-3.7-14-3.7-39.3-3.7-57.7v-1.5c0-18.5,0-43.7,3.7-57.7
	c5.7-21.7,27.7-37.4,52.3-37.4s46.6,15.7,52.3,37.4c3.7,14,3.7,39.3,3.7,57.7v1.5c0,18.5,0,43.7-3.7,57.8
	C154.9,228.3,132.9,244,108.3,244z M108.3,53.8C84.4,53.8,63,69,57.4,90c-3.6,13.8-3.6,39-3.6,57.3v1.5c0,18.4,0,43.5,3.6,57.4
	c5.6,21,27,36.3,50.9,36.3s45.3-15.2,50.9-36.3c3.6-13.8,3.6-39,3.6-57.4v-1.5c0-18.4,0-43.5-3.7-57.4
	C153.6,69,132.2,53.8,108.3,53.8z"/>
<path d="M181.9,214.1c-2.2,0-3.9-1.8-3.9-3.9s1.8-3.9,3.9-3.9s3.9,1.8,3.9,3.9S184.1,214.1,181.9,214.1L181.9,214.1z M181.9,207.7
	c-1.3,0-2.4,1.1-2.4,2.4s1.1,2.4,2.4,2.4s2.4-1.1,2.4-2.4C184.4,208.8,183.3,207.8,181.9,207.7z"/>
<path d="M34.2,214.1c-2.2,0-3.9-1.8-3.9-3.9s1.8-3.9,3.9-3.9c2.2,0,3.9,1.8,3.9,3.9C38.2,212.4,36.4,214.1,34.2,214.1
	C34.3,214.1,34.3,214.1,34.2,214.1z M34.2,207.7c-1.3,0-2.4,1.1-2.4,2.4s1.1,2.4,2.4,2.4c1.3,0,2.4-1.1,2.4-2.4
	S35.6,207.7,34.2,207.7L34.2,207.7z"/>
<path d="M135.9,147.4c8.3-9.1,7.8-23.2-1.3-31.5c-4.1-3.8-9.5-5.9-15.1-5.9h-9v-5.6c5.7-2.9,8-9.9,5-15.6c-2.9-5.7-9.9-8-15.6-5
	c-5.7,2.9-8,9.9-5,15.6c1.1,2.2,2.9,3.9,5,5v5.6h-6.1v10.6h6.1V187h-6.4c-6.5,0-12.3-3.8-14.9-9.8l3.6-1.8l-17.2-13.2l0.2,21.6
	l3.9-2c4.3,9.5,13.9,15.7,24.3,15.6H123c14.8,0,26.8-12,26.8-26.8C149.8,161,144.5,152,135.9,147.4L135.9,147.4z M105.2,89.4
	c2.6,0,4.7,2.1,4.7,4.7s-2.1,4.7-4.7,4.7c-2.6,0-4.7-2.1-4.7-4.7C100.6,91.5,102.7,89.4,105.2,89.4L105.2,89.4z M119.5,120.5
	c6.5,0.2,11.6,5.6,11.4,12.1c-0.2,6.2-5.2,11.2-11.4,11.4h-9v-23.5L119.5,120.5z M123,187h-12.4v-32.4H123c9,0.2,16,7.7,15.8,16.6
	C138.6,179.9,131.6,186.8,123,187L123,187z"/>
</svg>
