<svg xmlns="http://www.w3.org/2000/svg" viewBox="0 0 1080 1080"><defs><style>.cls-1{fill:#001e32;}</style></defs><g id="Layer_1" data-name="Layer 1"><path class="cls-1" d="M808.32,0H271.68C121.62,0,0,121.62,0,271.68V808.32C0,958.38,121.62,1080,271.68,1080H808.32C958.38,1080,1080,958.38,1080,808.32V271.68C1080,121.62,958.38,0,808.32,0Zm195.13,808.32a195.19,195.19,0,0,1-195.13,195.13H271.68A195.12,195.12,0,0,1,76.55,808.32V271.68A195.12,195.12,0,0,1,271.68,76.55H808.32a195.19,195.19,0,0,1,195.13,195.13Z"/><path class="cls-1" d="M535.73,305.89c-149.15,0-270,120.92-270.07,270.07S386.58,846,535.73,846,805.76,725.11,805.8,576,684.88,305.93,535.73,305.89ZM672.54,712.81A193.48,193.48,0,1,1,729.25,576,192.8,192.8,0,0,1,672.54,712.81Z"/><path class="cls-1" d="M899.08,240.37a83.55,83.55,0,1,0-83.55,83.51,83.52,83.52,0,0,0,83.55-83.51"/></g></svg>