<?xml version="1.0" encoding="UTF-8"?>
<svg width="1440px" height="854px" viewBox="0 0 1440 854" version="1.1" xmlns="http://www.w3.org/2000/svg" xmlns:xlink="http://www.w3.org/1999/xlink">
    <!-- Generator: Sketch 61.2 (89653) - https://sketch.com -->
    <title>bg3</title>
    <desc>Created with Sketch.</desc>
    <g id="bg3" stroke="none" stroke-width="1" fill="none" fill-rule="evenodd">
        <g id="Bergesen-nyanser1-nyanser" transform="translate(1188.500000, 524.209991) scale(-1, 1) translate(-1188.500000, -524.209991) translate(780.000000, 194.209991)" fill-rule="nonzero">
            <g id="Layer_2" transform="translate(157.000000, 0.000000)">
                <rect id="Rectangle" x="0" y="0" width="660" height="660"></rect>
            </g>
            <g id="Bergesen7" transform="translate(316.105458, 427.290009) scale(-1, 1) rotate(-90.000000) translate(-316.105458, -427.290009) translate(83.605458, 111.290009)" fill="#cde9df">
                <path d="M148.815573,632 L0,632 L0,509.719596 L148.815573,509.719596 C255.652852,509.719596 342.545886,422.826562 342.545886,316 C342.545886,209.173438 255.652852,122.269687 148.815573,122.269687 L0,122.269687 L0,0 L148.815573,0 C323.06247,0 464.82629,141.753103 464.82629,316 C464.82629,490.246897 323.06247,632 148.815573,632 Z" id="Path"></path>
            </g>
        </g>
    </g>
</svg>
