<?xml version="1.0" encoding="UTF-8"?>
<svg width="1440px" height="854px" viewBox="0 0 1440 854" version="1.1" xmlns="http://www.w3.org/2000/svg" xmlns:xlink="http://www.w3.org/1999/xlink">
    <!-- Generator: Sketch 61.2 (89653) - https://sketch.com -->
    <title>bg4</title>
    <desc>Created with Sketch.</desc>
    <g id="bg4" stroke="none" stroke-width="1" fill="none" fill-rule="evenodd">
        <g id="Bergesen-nyanser4-nyanser" transform="translate(779.790009, 193.000000)" fill-rule="nonzero">
            <g id="Layer_2">
                <rect id="Rectangle" x="0" y="0" width="660.388529" height="660.388529"></rect>
            </g>
            <g id="Layer_1" transform="translate(0.000000, 237.027752)" fill="#cde9df">
                <path d="M660.388529,0.110064755 C551.063654,0.721535615 455.839297,61.9725717 406.695384,151.864903 C363.44605,111.507826 305.472498,86.7432562 241.787808,86.7432562 C111.452794,86.7432562 4.84896392,190.332535 0,319.511869 L0,424.360777 L112.345541,424.360777 L112.345541,328.70839 C112.345541,257.331397 170.435273,199.272239 241.787808,199.272239 C313.140342,199.272239 371.236189,257.36197 371.236189,328.70839 L371.236189,424.360777 L483.746827,424.360777 L483.746827,290.901147 C483.746827,193.139186 562.834468,113.531795 660.388529,112.645162 L660.388529,0.110064755 Z" id="Path"></path>
            </g>
        </g>
    </g>
</svg>
