<svg id="Layer_1" data-name="Layer 1" xmlns="http://www.w3.org/2000/svg" viewBox="0 0 480 302"><defs><style>.cls-1{fill:#8cc5b0;}.cls-2{fill:#8f302b;}.cls-3{fill:none;}</style></defs><g id="bergesen-hero-3"><rect id="Rectangle" class="cls-1" width="480" height="302"/></g><path class="cls-2" d="M388.53,183.57A22.49,22.49,0,1,1,411,161.08,22.52,22.52,0,0,1,388.53,183.57Zm0-31.83a9.34,9.34,0,1,0,9.34,9.34A9.35,9.35,0,0,0,388.53,151.74Z"/><path class="cls-2" d="M285.18,191.71a26,26,0,1,0,26,26A26,26,0,0,0,285.18,191.71Z"/><path class="cls-2" d="M301.43,36.18a18,18,0,1,0,18,18A18,18,0,0,0,301.43,36.18Z"/><polygon class="cls-2" points="180.17 119.08 215.39 104.64 212.59 147.97 180.17 119.08"/><path class="cls-2" d="M83.22,34.11V71.53A48.69,48.69,0,0,1,0,105.89v37.22A79.45,79.45,0,0,0,114,71.53V34.11Z"/><polygon class="cls-2" points="95.1 302 139.86 272.07 83.01 238.94 78.33 302 95.1 302"/><path class="cls-3" d="M466.33,77.29A14.46,14.46,0,0,0,480,91.7V62.88A14.45,14.45,0,0,0,466.33,77.29Z"/><path class="cls-2" d="M466.33,77.29A14.45,14.45,0,0,1,480,62.88V42.51a34.79,34.79,0,0,0,0,69.56V91.7A14.46,14.46,0,0,1,466.33,77.29Z"/><path class="cls-2" d="M435.28,258.83A44,44,0,0,0,361.2,291v11h20.49V291a23.57,23.57,0,0,1,47.14,0v11h20.48V284.15A32.49,32.49,0,0,1,480,251.74V231.23A53,53,0,0,0,435.28,258.83Z"/></svg>