<?xml version="1.0" encoding="utf-8"?>
<!-- Generator: Adobe Illustrator 24.3.0, SVG Export Plug-In . SVG Version: 6.00 Build 0)  -->
<svg version="1.1" id="Layer_1" xmlns="http://www.w3.org/2000/svg" xmlns:xlink="http://www.w3.org/1999/xlink" x="0px" y="0px"
	 viewBox="0 0 1440 302" style="enable-background:new 0 0 1440 302;" xml:space="preserve">
<style type="text/css">
	.st0{fill:#8CC5B0;}
	.st1{fill:#8F302B;}
</style>
<g id="bergesen-hero-3_1_">
	<rect id="Rectangle_1_" class="st0" width="1440" height="302"/>
</g>
<path class="st1" d="M388.5,183.6c-12.4,0-22.5-10-22.5-22.5c0-12.4,10-22.5,22.5-22.5c12.4,0,22.5,10,22.5,22.5c0,0,0,0,0,0
	C411,173.5,400.9,183.5,388.5,183.6z M388.5,151.7c-5.2,0-9.3,4.2-9.3,9.3s4.2,9.3,9.3,9.3c5.2,0,9.3-4.2,9.3-9.3c0,0,0,0,0,0
	C397.9,155.9,393.7,151.7,388.5,151.7z"/>
<path class="st1" d="M285.2,191.7c-14.4,0-26,11.6-26,26s11.6,26,26,26s26-11.6,26-26S299.5,191.7,285.2,191.7z"/>
<path class="st1" d="M301.4,36.2c-9.9,0-18,8.1-18,18s8.1,18,18,18s18-8.1,18-18S311.4,36.2,301.4,36.2z"/>
<polygon class="st1" points="180.2,119.1 215.4,104.6 212.6,148 "/>
<path class="st1" d="M83.2,34.1v37.4c0,26.9-21.8,48.7-48.7,48.7c-13,0-25.4-5.2-34.6-14.4v37.2c39.5,19.1,87,2.5,106.1-37
	c5.2-10.8,7.9-22.6,7.9-34.6V34.1H83.2z"/>
<polygon class="st1" points="95.1,302 139.9,272.1 83,238.9 78.3,302 "/>
<path class="st1" d="M435.3,258.8c-17.7-16.6-45.6-15.7-62.2,2c-7.7,8.2-11.9,18.9-11.9,30.1v11h20.5v-11c0-13,10.6-23.6,23.6-23.6
	s23.6,10.6,23.6,23.6l0,0v11h20.5v-17.9c0-17.2,13.5-31.5,30.7-32.4v-20.5C461.3,231.9,444.3,242.4,435.3,258.8z"/>
<path class="st1" d="M819.5,11.9c-8.8,0-15.9,7.1-15.9,15.9s7.1,15.9,15.9,15.9c8.8,0,15.9-7.1,15.9-15.9c0,0,0,0,0,0
	C835.4,19,828.3,11.9,819.5,11.9z"/>
<polygon class="st1" points="925.6,289.3 885.5,261.6 934,234.3 "/>
<polygon class="st1" points="668.9,11.3 664.9,46.4 630.9,24.7 "/>
<path class="st1" d="M481.8,231.2H480v20.5c0.6,0,1.2-0.1,1.8-0.1c17.9,0,32.4,14.5,32.5,32.5V302h20.5v-17.9
	C534.7,254.9,511,231.2,481.8,231.2z"/>
<polygon class="st1" points="627.3,302 642.2,292.9 600.7,277.2 603,302 "/>
<path class="st1" d="M758.1,302c2.1-5,7.9-7.4,12.9-5.3c2.4,1,4.3,2.9,5.3,5.3h14.3c-2.1-12.9-14.3-21.8-27.2-19.7
	c-10.1,1.6-18.1,9.6-19.7,19.7H758.1z"/>
<path class="st1" d="M1386.7,63.2c-9.8,0-17.7-7.9-17.7-17.7s7.9-17.7,17.7-17.7s17.7,7.9,17.7,17.7c0,0,0,0,0,0
	C1404.5,55.3,1396.5,63.2,1386.7,63.2z M1386.7,38.1c-4.1,0-7.4,3.3-7.4,7.4s3.3,7.4,7.4,7.4s7.4-3.3,7.4-7.4c0,0,0,0,0,0
	C1394.1,41.4,1390.8,38.1,1386.7,38.1z"/>
<path class="st1" d="M1354.7,111c0,14.8-12.1,26.8-26.9,26.8c-14.8,0-26.8-12.1-26.8-26.9c0-14.8,12-26.8,26.8-26.8
	C1342.7,84.1,1354.8,96.2,1354.7,111C1354.7,111,1354.7,111,1354.7,111z M1339.1,111c0-6.2-5-11.2-11.1-11.2
	c-6.2,0-11.2,5-11.2,11.1c0,6.2,5,11.2,11.1,11.2c0,0,0,0,0,0C1334.1,122.1,1339,117.2,1339.1,111z"/>
<path class="st1" d="M1261.3,272.5c0-8.1-6.6-14.7-14.7-14.7c-8.1,0-14.7,6.6-14.7,14.6c0,8.1,6.6,14.7,14.7,14.7c0,0,0,0,0,0
	C1254.7,287.1,1261.3,280.6,1261.3,272.5z"/>
<path class="st1" d="M1093.4,27.8c0-8.1-6.6-14.7-14.7-14.7s-14.7,6.6-14.7,14.6c0,8.1,6.6,14.7,14.7,14.7c0,0,0,0,0,0
	C1086.8,42.4,1093.4,35.9,1093.4,27.8z"/>
<polygon class="st1" points="1344.8,263.7 1386.4,280.7 1383.1,229.6 "/>
<polygon class="st1" points="1241.6,72.3 1285.2,46.9 1237.4,14.9 "/>
<path class="st1" d="M1058.3,302c2.1-11.3,12.9-18.7,24.2-16.7c8.5,1.6,15.1,8.2,16.7,16.7h29.5c-2.1-27.6-26.2-48.2-53.7-46.1
	c-24.7,1.9-44.2,21.5-46.1,46.1H1058.3z"/>
<path class="st1" d="M1440,109.3c-29,0-52.5,23.5-52.5,52.5v24.7h20.3v-24.7c0-17.8,14.4-32.2,32.2-32.2V109.3z"/>
<path class="st1" d="M480,112.2c-19.3,0-34.9-15.6-34.9-34.9c0-19.3,15.6-34.9,34.9-34.9c19.3,0,34.9,15.6,34.9,34.9c0,0,0,0,0,0
	C514.9,96.6,499.3,112.2,480,112.2z M480,62.8c-8,0-14.5,6.5-14.5,14.5S472,91.8,480,91.8c8,0,14.5-6.5,14.5-14.5c0,0,0,0,0,0
	C494.5,69.3,488,62.8,480,62.8z"/>
<path class="st1" d="M969,167.1c-28.3,0-51.3-22.9-51.4-51.3c0-28.3,22.9-51.3,51.3-51.4c28.3,0,51.3,22.9,51.4,51.3c0,0,0,0,0,0
	C1020.2,144.1,997.3,167.1,969,167.1z M969,94.5c-11.8,0-21.3,9.5-21.3,21.3s9.5,21.3,21.3,21.3c11.8,0,21.3-9.5,21.3-21.3
	c0,0,0,0,0,0C990.3,104.1,980.8,94.5,969,94.5z"/>
</svg>
