<svg id="Layer_1" data-name="Layer 1" xmlns="http://www.w3.org/2000/svg" viewBox="0 0 480 302"><defs><style>.cls-1{fill:#8cc5b0;}.cls-2{fill:#8f302b;}</style></defs><g id="bergesen-hero-3"><rect id="Rectangle" class="cls-1" width="480" height="302"/></g><path class="cls-2" d="M426.74,63.21a17.73,17.73,0,1,1,17.73-17.72A17.74,17.74,0,0,1,426.74,63.21Zm0-25.08a7.36,7.36,0,1,0,7.36,7.36A7.37,7.37,0,0,0,426.74,38.13Z"/><path class="cls-2" d="M394.74,111A26.84,26.84,0,1,1,367.9,84.1,26.87,26.87,0,0,1,394.74,111Zm-15.69,0a11.15,11.15,0,1,0-11.15,11.14A11.16,11.16,0,0,0,379.05,111Z"/><path class="cls-2" d="M301.31,272.49a14.66,14.66,0,1,0-14.65,14.65A14.66,14.66,0,0,0,301.31,272.49Z"/><path class="cls-2" d="M133.4,27.76a14.66,14.66,0,1,0-14.66,14.65A14.67,14.67,0,0,0,133.4,27.76Z"/><polygon class="cls-2" points="384.84 263.71 426.38 280.74 423.07 229.63 384.84 263.71"/><polygon class="cls-2" points="281.63 72.35 325.25 46.93 277.38 14.93 281.63 72.35"/><g id="bergesen-hero-3-2" data-name="bergesen-hero-3"><rect id="Rectangle-2" data-name="Rectangle" class="cls-1" x="-480" width="480" height="302"/></g><path class="cls-2" d="M61,115.8A51.35,51.35,0,0,0,9.68,64.51,51.49,51.49,0,0,0,0,65.44V96.86A21,21,0,0,1,9.68,94.5,21.3,21.3,0,1,1,0,134.75v31.41a50.67,50.67,0,0,0,9.68.93A51.35,51.35,0,0,0,61,115.8Z"/><path class="cls-2" d="M98.31,302a20.78,20.78,0,0,1,40.87,0h29.5a50.08,50.08,0,0,0-99.87,0Z"/><path class="cls-2" d="M480,109.35a52.58,52.58,0,0,0-52.52,52.52V186.6H447.8V161.87a32.24,32.24,0,0,1,32.2-32.2Z"/></svg>